<svg width="26" height="26" version="1.1" viewBox="0 0 26 26" xmlns="http://www.w3.org/2000/svg">
	<path d="m8.039 0.1952c-5.4 1.081-8.922 6.365-7.845 11.77l1.963-0.3912c-0.8662-4.343 1.933-8.543 6.273-9.412 4.342-0.869 8.541 1.927 9.41 6.267 0.8715 4.343-1.919 8.547-6.258 9.42-4.338 0.8747-8.541-1.92-9.417-6.26l-1.963 0.3988c1.091 5.398 6.375 8.906 11.77 7.817 5.4-1.088 8.915-6.365 7.83-11.77-1.084-5.402-6.364-8.921-11.76-7.84z"/>
	<path d="m17.07 15.66-1.41 1.41 8.923 8.93 1.417-1.417z"/>
</svg>
