<svg width="26" height="26" version="1.1" viewBox="0 0 26 26" xmlns="http://www.w3.org/2000/svg">
	<rect x="12" width="2" height="4"/>
	<rect x="12" y="22" width="2" height="4"/>
	<rect x="22" y="12" width="4" height="2"/>
	<rect y="12" width="4" height="2"/>
	<path d="m11.04 13.39a2 2 0 0 1 1.569-2.352 2 2 0 0 1 2.354 1.567 2 2 0 0 1-1.566 2.354 2 2 0 0 1-2.355-1.564"/>
	<rect x="12" y="6" width="2" height="7"/>
	<rect transform="matrix(.8654 .5012 -.4989 .8667 -7.813e-7 -4.081e-7)" x="16.76" y="4.734" width="2" height="6"/>
	<rect transform="rotate(30)" x="16.76" y="-8.242" width="2" height="4"/>
	<rect transform="rotate(30)" x="16.76" y="13.76" width="2" height="4"/>
	<rect transform="rotate(60)" x="16.76" y="-17.76" width="2" height="4"/>
	<rect transform="rotate(60)" x="16.76" y="4.242" width="2" height="4"/>
	<rect transform="rotate(120)" x="3.758" y="-30.76" width="2" height="4"/>
	<rect transform="rotate(120)" x="3.758" y="-8.758" width="2" height="4"/>
	<rect transform="rotate(-30)" x="3.759" y="4.758" width="2" height="4"/>
	<rect transform="rotate(-30)" x="3.758" y="26.76" width="2" height="4"/>
</svg>
